<?xml version="1.0" standalone="no"?><!DOCTYPE svg PUBLIC "-//W3C//DTD SVG 1.1//EN" "http://www.w3.org/Graphics/SVG/1.1/DTD/svg11.dtd"><svg t="1714083019056" class="icon" viewBox="0 0 1024 1024" version="1.1" xmlns="http://www.w3.org/2000/svg" p-id="1477" xmlns:xlink="http://www.w3.org/1999/xlink" width="200" height="200"><path d="M524.2368 0v0.3072l23.936 0.2944L966.4 119.872l-23.872 476.288c0 3.1232 0 63.296-17.5744 99.3792C865.8176 816.7936 740.224 926.2336 548.1728 1024h-72.3456C283.776 926.2976 158.1696 816.7936 99.0464 695.5392c-17.5744-36.0832-17.5744-96.256-17.5744-99.392L57.6 119.8592 475.8272 0.6144l23.936-0.2944V0l12.2368 0.1792 12.2368-0.1792z" fill="#F47223" p-id="1478"></path><path d="M376.768 273.7152v388.864h-53.5552v-388.864h53.5552z m246.7072 0l13.2096 0.4096c47.4368 2.8928 84.7616 21.76 111.9616 56.512 26.4192 34.2656 39.68 78.1184 39.68 131.5456 0 41.3184-7.808 78.6688-23.4368 111.9744-27.5072 58.9184-74.8288 88.4352-141.9008 88.4352H465.1008V273.7152H623.488z m-11.0848 45.2864h-94.0288V617.6h94.5152c17.9328 0 32.7168-1.856 44.224-5.5424a97.152 97.152 0 0 0 50.5984-39.744c10.4832-15.7312 17.984-35.7888 22.656-60.3008 2.5984-14.6944 3.9424-28.2496 3.9424-40.7808 0-48.192-9.5744-85.5936-28.8384-112.2816-19.2768-26.624-50.304-39.936-93.056-39.936z" fill="#FFFFFF" p-id="1479"></path></svg>